<svg viewBox="0 0 24 24" version="1.1"
    xmlns="http://www.w3.org/2000/svg"
    xmlns:xlink="http://www.w3.org/1999/xlink">
    <title>Add</title>
    <path d="M13.0003,11 L20.0003,11 C20.5525847,11 21.0003,11.4477153 21.0003,12 C21.0003,12.5522847 20.5525847,13 20.0003,13 L13.0003,13 L13.0003,20 C13.0003,20.5522847 12.5525847,21 12.0003,21 C11.4480153,21 11.0003,20.5522847 11.0003,20 L11.0003,13 L4.0003,13 C3.44801525,13 3.0003,12.5522847 3.0003,12 C3.0003,11.4477153 3.44801525,11 4.0003,11 L11.0003,11 L11.0003,4 C11.0003,3.44771525 11.4480153,3 12.0003,3 C12.5525847,3 13.0003,3.44771525 13.0003,4 L13.0003,11 Z" fill="currentColor" fill-rule="nonzero"></path>
</svg>
