<svg viewBox="0 0 72 72" version="1.1"
    xmlns="http://www.w3.org/2000/svg"
    xmlns:xlink="http://www.w3.org/1999/xlink">
    <title>Bus</title>
    <path d="M43.0136986,41.7586207 L27.0136986,41.7586207 C26.3561644,41.7586207 25.9178082,42.2068966 25.9178082,42.8793103 C25.9178082,43.5517241 26.3561644,44 27.0136986,44 L43.0136986,44 C43.6712329,44 44.109589,43.5517241 44.109589,42.8793103 C44.109589,42.2068966 43.6712329,41.7586207 43.0136986,41.7586207 Z M55.9429895,18 C46.518332,18 29.8630137,18 7.17808219,18 C5.42465753,18 4,19.4568966 4,21.25 L4,48.8189655 C4,50.612069 5.42465753,52.0689655 7.17808219,52.0689655 L10.4657534,52.0689655 C11.0136986,54.8706897 13.3150685,57 16.2739726,57 C19.1232877,57 21.5342466,54.8706897 22.0821918,52.0689655 L48.0547945,52.0689655 C48.6027397,54.8706897 50.9041096,57 53.8630137,57 C56.7123288,57 59.1232877,54.8706897 59.6712329,52.0689655 L64.8219178,52.0689655 C66.5753425,52.0689655 68,50.612069 68,48.8189655 L68,43.887931 L68,38.5086207 L68,29.3189655 C68,25.6206897 66.2465753,22.3706897 63.5068493,20.2413793 C61.5122213,18.7471264 58.9909347,18 55.9429895,18 Z M39.1780822,32.1206897 L39.1780822,20.2413793 L47.9452055,20.2413793 L47.9452055,32.1206897 L39.1780822,32.1206897 Z M17.1506849,32.1206897 L17.1506849,20.2413793 L25.9178082,20.2413793 L25.9178082,32.1206897 L17.1506849,32.1206897 Z M28.109589,20.2413793 L36.8767123,20.2413793 L36.8767123,32.1206897 L28.109589,32.1206897 L28.109589,20.2413793 Z M7.17808219,20.2413793 L14.9589041,20.2413793 L14.9589041,32.1206897 L6.19178082,32.1206897 L6.19178082,21.25 C6.19178082,20.6896552 6.63013699,20.2413793 7.17808219,20.2413793 Z M16.2739726,54.7586207 C14.1917808,54.7586207 12.5479452,53.0775862 12.5479452,50.9482759 C12.5479452,48.8189655 14.1917808,47.137931 16.2739726,47.137931 C18.2465753,47.137931 20,48.8189655 20,50.9482759 C20,53.0775862 18.3561644,54.7586207 16.2739726,54.7586207 Z M53.7534247,54.7586207 C51.6712329,54.7586207 50.0273973,53.0775862 50.0273973,50.9482759 C50.0273973,48.8189655 51.6712329,47.137931 53.7534247,47.137931 C55.7260274,47.137931 57.4794521,48.8189655 57.4794521,50.9482759 C57.4794521,53.0775862 55.8356164,54.7586207 53.7534247,54.7586207 Z M64.7123288,49.9396552 L59.5616438,49.9396552 C59.0136986,47.137931 56.7123288,45.0086207 53.7534247,45.0086207 C50.9041096,45.0086207 48.4931507,47.137931 47.9452055,49.9396552 L22.0821918,49.9396552 C21.5342466,47.137931 19.2328767,45.0086207 16.2739726,45.0086207 C13.4246575,45.0086207 11.0136986,47.137931 10.4657534,49.9396552 L7.17808219,49.9396552 C6.63013699,49.9396552 6.19178082,49.4913793 6.19178082,48.9310345 L6.19178082,39.7413793 L10.4657534,39.7413793 C11.1232877,39.7413793 11.5616438,39.2931034 11.5616438,38.6206897 C11.5616438,37.9482759 11.1232877,37.5 10.4657534,37.5 L6.19178082,37.5 L6.19178082,34.4741379 L65.6986301,34.4741379 L65.6986301,37.5 L59.890411,37.5 C59.2328767,37.5 58.7945205,37.9482759 58.7945205,38.6206897 C58.7945205,42.2068966 61.6438356,45.1206897 65.1506849,45.1206897 L65.8082192,45.1206897 L65.8082192,48.9310345 C65.6986301,49.3793103 65.260274,49.9396552 64.7123288,49.9396552 Z M65.6986301,42.7672414 L65.0410959,42.7672414 C63.1780822,42.7672414 61.5342466,41.4224138 60.9863014,39.6293103 L65.5890411,39.6293103 L65.5890411,42.7672414 L65.6986301,42.7672414 Z M65.6986301,29.3189655 L65.6986301,32.2327586 L50.1369863,32.2327586 L50.1369863,20.2413793 L56.9315068,20.2413793 L56.9315068,20.2413793 C61.7534247,20.2413793 65.6986301,24.2758621 65.6986301,29.3189655 Z" id="bus-svg" fill="currentColor" fill-rule="nonzero"></path>
</svg>
