<svg viewBox="0 0 24 24" version="1.1"
    xmlns="http://www.w3.org/2000/svg"
    xmlns:xlink="http://www.w3.org/1999/xlink">
    <title>Check mark</title>
    <path d="M24.0003,12 C24.0003,18.6272847 18.6275847,24 12.0003,24 C5.37301525,24 0.0003,18.6272847 0.0003,12 C0.0003,5.37271525 5.37301525,0 12.0003,0 C18.6275847,0 24.0003,5.37271525 24.0003,12 Z M22.0003,12 C22.0003,6.47728475 17.5230153,2 12.0003,2 C6.47758475,2 2.0003,6.47728475 2.0003,12 C2.0003,17.5227153 6.47758475,22 12.0003,22 C17.5230153,22 22.0003,17.5227153 22.0003,12 Z M9.0550002,12.1679497 L11.2229499,13.6132495 L14.6682497,8.4452998 C14.9746022,7.98577112 15.5954715,7.86159725 16.0550002,8.16794971 C16.5145289,8.47430216 16.6387028,9.09517151 16.3323503,9.5547002 L12.3323503,15.5547002 C12.0259978,16.0142289 11.4051285,16.1384028 10.9455998,15.8320503 L7.9455998,13.8320503 C7.48607112,13.5256978 7.36189725,12.9048285 7.66824971,12.4452998 C7.97460216,11.9857711 8.59547151,11.8615972 9.0550002,12.1679497 Z" id="check-circle-svg" fill="currentColor" fill-rule="nonzero"></path>
</svg>
