<svg viewBox="0 0 24 24" version="1.1"
    xmlns="http://www.w3.org/2000/svg"
    xmlns:xlink="http://www.w3.org/1999/xlink" aria-labelledby="close-title">
    <title id="close-title">Close</title>
    <path d="M12,10.5842976 L16.791096,5.79320157 C17.1820314,5.40226614 17.815863,5.40226614 18.2067984,5.79320157 C18.5977339,6.18413701 18.5977339,6.81796857 18.2067984,7.20890401 L13.4157024,12 L18.2067984,16.791096 C18.5977339,17.1820314 18.5977339,17.815863 18.2067984,18.2067984 C17.815863,18.5977339 17.1820314,18.5977339 16.791096,18.2067984 L12,13.4157024 L7.20890401,18.2067984 C6.81796857,18.5977339 6.18413701,18.5977339 5.79320157,18.2067984 C5.40226614,17.815863 5.40226614,17.1820314 5.79320157,16.791096 L10.5842976,12 L5.79320157,7.20890401 C5.40226614,6.81796857 5.40226614,6.18413701 5.79320157,5.79320157 C6.18413701,5.40226614 6.81796857,5.40226614 7.20890401,5.79320157 L12,10.5842976 Z" fill="currentColor" fill-rule="nonzero"></path>
</svg>
