<svg viewBox="0 0 24 24" version="1.1"
    xmlns="http://www.w3.org/2000/svg"
    xmlns:xlink="http://www.w3.org/1999/xlink" aria-hidden="true">
    <title>Dashboard</title>
    <path d="M11.000225,12.7081644 L11.000225,9.75 C11.000225,9.19771525 11.4479403,8.75 12.000225,8.75 C12.5525097,8.75 13.000225,9.19771525 13.000225,9.75 L13.000225,12.7081644 C13.8830267,13.0940845 14.500225,13.975228 14.500225,15 C14.500225,16.3802847 13.3805097,17.5 12.000225,17.5 C10.6199403,17.5 9.500225,16.3802847 9.500225,15 C9.500225,13.975228 10.1174233,13.0940845 11.000225,12.7081644 Z M6.21543284,7.62920612 C5.4858599,8.59328101 4.99173088,9.74540792 4.81863263,11 L6.000225,11 C6.55250975,11 7.000225,11.4477153 7.000225,12 C7.000225,12.5522847 6.55250975,13 6.000225,13 L4.81863263,13 C5.30577913,16.5307701 8.33553977,19.25 12.000225,19.25 C15.6649102,19.25 18.6946709,16.5307701 19.1818174,13 L18.000225,13 C17.4479403,13 17.000225,12.5522847 17.000225,12 C17.000225,11.4477153 17.4479403,11 18.000225,11 L19.1818174,11 C19.0087319,9.7455005 18.514663,8.59345105 17.7851787,7.62941955 L16.9505567,8.46463179 C16.5601705,8.8552941 15.9270055,8.85551791 15.5363432,8.46513169 C15.1456809,8.07474546 15.1454571,7.44158052 15.5358433,7.05091821 L16.3709871,6.21518379 C15.4069187,5.48562404 14.2548033,4.99150398 13.000225,4.81840763 L13.000225,6 C13.000225,6.55228475 12.5525097,7 12.000225,7 C11.4479403,7 11.000225,6.55228475 11.000225,6 L11.000225,4.81840763 C9.74573927,4.99149121 8.59370135,5.48555112 7.6296763,6.2150223 L8.46468169,7.05061821 C8.85506791,7.44128052 8.8548441,8.07444546 8.46418179,8.46483169 C8.07351948,8.85521791 7.44035454,8.8549941 7.04996831,8.46433179 L6.21543284,7.62920612 Z M21.250225,12 C21.250225,17.1085347 17.1087597,21.25 12.000225,21.25 C6.89169025,21.25 2.750225,17.1085347 2.750225,12 C2.750225,6.89146525 6.89169025,2.75 12.000225,2.75 C17.1087597,2.75 21.250225,6.89146525 21.250225,12 Z M12.500225,15 C12.500225,14.7242847 12.2759403,14.5 12.000225,14.5 C11.7245097,14.5 11.500225,14.7242847 11.500225,15 C11.500225,15.2757153 11.7245097,15.5 12.000225,15.5 C12.2759403,15.5 12.500225,15.2757153 12.500225,15 Z" fill="currentColor" fill-rule="nonzero"></path>
</svg>
