<svg viewBox="0 0 24 24" version="1.1"
    xmlns="http://www.w3.org/2000/svg"
    xmlns:xlink="http://www.w3.org/1999/xlink" aria-hidden="true">
    <title>Date</title>
    <path d="M15.500225,6.25 L8.500225,6.25 L8.500225,7.5 C8.500225,8.05228475 8.05250975,8.5 7.500225,8.5 C6.94794025,8.5 6.500225,8.05228475 6.500225,7.5 L6.500225,6.25 L5.250225,6.25 C4.97450975,6.25 4.750225,6.47428475 4.750225,6.75 L4.750225,9.5 L19.250225,9.5 L19.250225,6.75 C19.250225,6.47428475 19.0259403,6.25 18.750225,6.25 L17.500225,6.25 L17.500225,7.5 C17.500225,8.05228475 17.0525097,8.5 16.500225,8.5 C15.9479403,8.5 15.500225,8.05228475 15.500225,7.5 L15.500225,6.25 Z M17.500225,4.25 L18.750225,4.25 C20.1305097,4.25 21.250225,5.36971525 21.250225,6.75 L21.250225,18.75 C21.250225,20.1302847 20.1305097,21.25 18.750225,21.25 L5.250225,21.25 C3.86994025,21.25 2.750225,20.1302847 2.750225,18.75 L2.750225,6.75 C2.750225,5.36971525 3.86994025,4.25 5.250225,4.25 L6.500225,4.25 L6.500225,3.75 C6.500225,3.19771525 6.94794025,2.75 7.500225,2.75 C8.05250975,2.75 8.500225,3.19771525 8.500225,3.75 L8.500225,4.25 L15.500225,4.25 L15.500225,3.75 C15.500225,3.19771525 15.9479403,2.75 16.500225,2.75 C17.0525097,2.75 17.500225,3.19771525 17.500225,3.75 L17.500225,4.25 Z M19.250225,11.5 L4.750225,11.5 L4.750225,18.75 C4.750225,19.0257153 4.97450975,19.25 5.250225,19.25 L18.750225,19.25 C19.0259403,19.25 19.250225,19.0257153 19.250225,18.75 L19.250225,11.5 Z" fill="currentColor" fill-rule="nonzero"></path>
</svg>
