<svg viewBox="0 0 24 24" version="1.1"
    xmlns="http://www.w3.org/2000/svg"
    xmlns:xlink="http://www.w3.org/1999/xlink" aria-hidden="true">
    <title>Disruption</title>
    <path d="M15.052126,6.01534661 L20.7821774,16.0024362 C22.1237757,18.3413103 20.4291608,21.25 17.73,21.25 L6.27075,21.25 C3.57078272,21.25 1.87604524,18.3410999 3.2185959,16.0023956 L8.94776846,6.01553062 C10.2980127,3.66098979 13.7019873,3.66098979 15.052126,6.01534661 Z M17.73,19.25 C18.894855,19.25 19.6227164,18.000676 19.047374,16.9976534 L13.3172685,7.01046938 C12.7355127,5.99601021 11.2644873,5.99601021 10.6826541,7.01060438 L4.95325932,16.9978567 C4.37746262,18.0008864 5.10520145,19.25 6.27075,19.25 L17.73,19.25 Z M13.000225,14.25 C13.000225,14.8022847 12.5525097,15.25 12.000225,15.25 C11.4479403,15.25 11.000225,14.8022847 11.000225,14.25 L11.000225,9.75 C11.000225,9.19771525 11.4479403,8.75 12.000225,8.75 C12.5525097,8.75 13.000225,9.19771525 13.000225,9.75 L13.000225,14.25 Z M11.000225,17.25 C11.000225,16.6977153 11.4479403,16.25 12.000225,16.25 C12.5525097,16.25 13.000225,16.6977153 13.000225,17.25 L13.000225,17.2575 C13.000225,17.8097847 12.5525097,18.2575 12.000225,18.2575 C11.4479403,18.2575 11.000225,17.8097847 11.000225,17.2575 L11.000225,17.25 Z" fill="currentColor" fill-rule="nonzero"></path>
</svg>
