<svg viewBox="0 0 72 72" version="1.1"
    xmlns="http://www.w3.org/2000/svg"
    xmlns:xlink="http://www.w3.org/1999/xlink">
    <title>Ferry</title>
    <path d="M67.9145975,38.4522613 C67.7437924,38.0251256 67.4021823,37.7688442 66.9751696,37.7688442 L55.787438,37.7688442 L54.4209975,33.5829146 C53.9939848,32.3869347 52.8837519,31.5326633 51.6027139,31.5326633 L43.9164861,31.5326633 L42.464643,27.1758794 C42.0376304,25.9798995 40.9273975,25.1256281 39.6463595,25.1256281 L35.9740506,25.1256281 L35.9740506,21.9648241 C35.9740506,20.8542714 35.0346228,20 34.0097924,20 L11.9759393,20 C10.8657064,20 10.011681,20.9396985 10.011681,21.9648241 L10.011681,25.1256281 L8.98685066,25.1256281 C7.36420256,25.1256281 5.99776205,26.4924623 5.99776205,28.1155779 L5.99776205,31.5326633 L5.99776205,32.1306533 L5.99776205,37.8542714 L4.97293167,37.8542714 C4.63132155,37.8542714 4.37511395,38.0251256 4.20430889,38.1959799 C4.03350383,38.4522613 3.9481013,38.7085427 4.03350383,39.0502513 L6.68098231,53.2311558 C6.76638484,53.6582915 7.1933975,54 7.70581269,54 L51.0048962,54 C51.2611038,54 51.5173114,53.9145729 51.6881165,53.7437186 L67.6583899,39.5628141 C68,39.3065327 68.0854025,38.879397 67.9145975,38.4522613 Z M34.0097924,25.2110553 L29.9958734,25.2110553 L29.9958734,22.0502513 L34.0097924,22.0502513 L34.0097924,25.2110553 Z M17.9541165,25.2110553 L17.9541165,22.0502513 L21.9680355,22.0502513 L21.9680355,25.2110553 L17.9541165,25.2110553 Z M23.9322937,21.9648241 L27.9462127,21.9648241 L27.9462127,25.1256281 L23.9322937,25.1256281 L23.9322937,21.9648241 Z M11.9759393,21.9648241 L15.9898583,21.9648241 L15.9898583,25.1256281 L11.9759393,25.1256281 L11.9759393,21.9648241 Z M7.96202028,28.201005 C7.96202028,27.6884422 8.38903294,27.1758794 8.98685066,27.1758794 L39.560957,27.1758794 C39.9879696,27.1758794 40.4149823,27.4321608 40.5003848,27.8592965 L41.7814228,31.6180905 L7.96202028,31.6180905 L7.96202028,28.201005 Z M7.96202028,33.5829146 L51.5173114,33.5829146 C51.9443241,33.5829146 52.3713367,33.839196 52.4567392,34.2663317 L53.6523747,37.8542714 L7.96202028,37.8542714 L7.96202028,33.5829146 Z M50.5778836,52.0351759 L8.559838,52.0351759 L6.16856712,39.8190955 L64.3276911,39.8190955 L50.5778836,52.0351759 Z" fill="currentColor" fill-rule="nonzero"></path>
</svg>
