<svg viewBox="0 0 24 24" version="1.1"
    xmlns="http://www.w3.org/2000/svg"
    xmlns:xlink="http://www.w3.org/1999/xlink" aria-hidden="true">
    <title>Filter</title>
    <path d="M9.41751968,13.9537683 L9.41751968,18.3 C9.41751968,18.9493454 10.0826792,19.3861976 10.6785778,19.1282164 L13.9058228,17.7310514 C14.7219422,17.3760242 15.2125197,16.5750301 15.2125197,15.684555 L15.2125197,13.9537938 L20.0660501,7.69150415 C21.1964864,6.21747945 20.1449931,4.0975 18.2920397,4.0975 L6.33733468,4.0975 C4.48414957,4.0975 3.43256088,6.21809328 4.56163798,7.68779206 L9.41751968,13.9537683 Z M11.2225197,13.645 C11.2225197,13.444849 11.1559855,13.2503764 11.0333825,13.0921712 L5.9906875,6.58514615 C5.77757891,6.30773348 5.97853161,5.9025 6.33733468,5.9025 L18.2920397,5.9025 C18.6509499,5.9025 18.8521982,6.30824892 18.6365637,6.58942779 L13.5966842,13.0921359 C13.474064,13.2503472 13.4075197,13.4448337 13.4075197,13.645 L13.4075197,15.684555 C13.4075197,15.8772139 13.3221795,16.0165536 13.1872488,16.0752513 L11.2225197,16.9258368 L11.2225197,13.645 Z" fill="currentColor" fill-rule="nonzero"></path>
</svg>
