<svg xmlns="http://www.w3.org/2000/svg" viewBox="0 0 24 24">
  <path fill="currentColor" d="M10.9159835,15.8758946 L14.7785069,18.4509102 L19.6171665,10.8473021 C19.8395465,10.4978479 20.3031096,10.3948339 20.6525638,10.6172138 C21.002018,10.8395938 21.1050321,11.3031569 20.8826521,11.6526111 L15.6326797,19.9025678 C15.4069472,20.2572903 14.9337545,20.3571747 14.583914,20.1239477 L10.0839376,17.1239635 C9.73929291,16.8942003 9.646163,16.4285508 9.87592614,16.0839061 C10.1056893,15.7392614 10.5713388,15.6461315 10.9159835,15.8758946 Z M3.74999606,11.9999606 C3.33578467,11.9999606 3,11.664168 3,11.2499566 C3,10.8357453 3.33578467,10.4999606 3.74999606,10.4999606 L11.9999527,10.4999606 C12.4141641,10.4999606 12.7499488,10.8357453 12.7499488,11.2499566 C12.7499488,11.664168 12.4141641,11.9999606 11.9999527,11.9999606 L3.74999606,11.9999606 Z M3.74999606,4.5 C3.33578467,4.5 3,4.16420744 3,3.74999606 C3,3.33578467 3.33578467,3 3.74999606,3 L11.9999527,3 C12.4141641,3 12.7499488,3.33578467 12.7499488,3.74999606 C12.7499488,4.16420744 12.4141641,4.5 11.9999527,4.5 L3.74999606,4.5 Z M3.74999606,8.24998029 C3.33578467,8.24998029 3,7.91418773 3,7.49997635 C3,7.08576496 3.33578467,6.74998029 3.74999606,6.74998029 L11.9999527,6.74998029 C12.4141641,6.74998029 12.7499488,7.08576496 12.7499488,7.49997635 C12.7499488,7.91418773 12.4141641,8.24998029 11.9999527,8.24998029 L3.74999606,8.24998029 Z"/>
</svg>
