<svg viewBox="0 0 24 24" version="1.1"
    xmlns="http://www.w3.org/2000/svg"
    xmlns:xlink="http://www.w3.org/1999/xlink">
    <title>Map</title>
    <path d="M12.7218955,20.9431455 C12.6359961,21.0325918 12.5368828,21.102866 12.4301831,21.1534713 C12.284107,21.2229966 12.1257306,21.2545788 11.9689497,21.2494981 C11.7569278,21.2437774 11.5410568,21.1680354 11.3618208,21.0190786 C11.3431,21.0035204 11.3250914,20.9874233 11.3077988,20.9708284 C11.2813592,20.945407 11.2560234,20.9181784 11.231975,20.8892487 C11.2277796,20.8842019 11.2232945,20.8787953 11.2185231,20.8730325 C10.9289357,20.5101135 10.9234819,19.9819534 11.2318964,19.6108458 C11.2757021,19.5581355 11.3604699,19.4546794 11.4803149,19.3060583 C11.6400832,19.107928 11.814588,18.8883132 12.0008765,18.6500213 C12.1871837,18.8882765 12.361707,19.1078592 12.5214939,19.3059632 C12.6413691,19.4545845 12.7261582,19.5580408 12.769975,19.6107513 C13.0784352,19.981821 13.0730462,20.5099817 12.7835035,20.8729363 C12.7787327,20.8786998 12.7742483,20.8841069 12.7700536,20.8891542 C12.7544954,20.907875 12.7383983,20.9258836 12.7218034,20.9431762 C12.696382,20.9696158 12.6691534,20.9949516 12.6402237,21.019 C12.5745369,21.0736037 12.5039274,21.1183726 12.4301831,21.1534713 C12.286894,21.2214302 12.1299233,21.2539174 11.9731235,21.2496547 C11.7279929,21.2416896 11.4908045,21.1472811 11.3078295,20.9709205 C11.2755407,20.939872 11.2457738,20.9071839 11.2185231,20.8730325 C11.1664912,20.8101889 11.0804111,20.7049666 10.9647666,20.5615905 C10.7558278,20.3025481 10.5233889,20.0091027 10.2732698,19.6867239 C9.55867957,18.7656876 8.84400337,17.7954126 8.1754339,16.8187964 C7.72828216,16.1656173 7.31662963,15.5307836 6.94784014,14.9207725 C5.702616,12.8610596 5.000225,11.2013196 5.000225,9.9375 C5.000225,5.93498611 7.74587606,2.75 12.000975,2.75 C16.2548718,2.75 19.000225,5.93523775 19.000225,9.9375 C19.000225,11.2012647 18.2980163,12.8609888 17.0531179,14.9206778 C16.684421,15.5306882 16.2728717,16.1655215 15.8258319,16.8187003 C15.1574296,17.7953164 14.4429319,18.7655916 13.7285201,19.6866282 C13.4784633,20.0090073 13.2460824,20.3024528 13.0371956,20.5614955 C12.9215809,20.7048704 12.8355227,20.8100923 12.7835035,20.8729363 C12.7642244,20.8971035 12.7436854,20.9205383 12.7218955,20.9431455 Z M12.1481956,18.4608327 C12.839858,17.5691252 13.5314345,16.6299766 14.1753681,15.6891122 C14.602186,15.0654799 14.993504,14.4618544 15.3414718,13.8861404 C16.404324,12.1276476 17.000225,10.7191898 17.000225,9.9375 C17.000225,6.97925984 15.0788282,4.75 12.000975,4.75 C8.92182394,4.75 7.000225,6.97907639 7.000225,9.9375 C7.000225,10.719135 7.59626826,12.1275768 8.65937169,13.8860456 C9.00742611,14.461759 9.39884165,15.0653841 9.8257661,15.6890161 C10.4698607,16.6298804 11.1616103,17.5690292 11.8534458,18.4607371 C11.9033492,18.5250575 11.9525099,18.5881686 12.0008765,18.6500213 C12.0492069,18.5881992 12.0983305,18.52512 12.1481956,18.4608327 Z M12.000225,11 C12.6899403,11 13.250225,10.4397153 13.250225,9.75 C13.250225,9.06028475 12.6899403,8.5 12.000225,8.5 C11.3100703,8.5 10.750225,9.05997418 10.750225,9.75 C10.750225,10.4400258 11.3100703,11 12.000225,11 Z M12.000225,13 C10.2053977,13 8.750225,11.5444923 8.750225,9.75 C8.750225,7.95550774 10.2053977,6.5 12.000225,6.5 C13.7945097,6.5 15.250225,7.95571525 15.250225,9.75 C15.250225,11.5442847 13.7945097,13 12.000225,13 Z" fill="currentColor" fill-rule="nonzero"></path>
</svg>
