<svg viewBox="0 0 24 24" version="1.1"
    xmlns="http://www.w3.org/2000/svg"
    xmlns:xlink="http://www.w3.org/1999/xlink">
    <title>Notification</title>
    <path d="M10.88835,17.8623415 C9.61150781,18.9585912 7.68506183,18.901694 6.47563326,17.6922655 C5.26583269,16.4824649 5.20913938,14.5564696 6.30555333,13.2795448 L3.29349364,10.2674851 C2.75056103,9.72455253 2.99671548,8.79764206 3.73748302,8.59561455 L9.314907,7.07449891 L11.778775,4.6106309 C13.9262829,2.46312303 17.4094417,2.46312303 19.5569496,4.6106309 C21.7044575,6.75813877 21.7044575,10.2412976 19.5569496,12.3888055 L17.0930816,14.8526735 L15.571966,20.4300975 C15.3699385,21.170865 14.443028,21.4170195 13.9000954,20.8740869 L10.88835,17.8623415 L10.88835,17.8623415 Z M7.73074339,14.7047349 C7.40912145,15.1901032 7.46215593,15.850361 7.88984682,16.2780519 C8.31724338,16.7054484 8.97782801,16.7585358 9.46313852,16.43713 L7.73074339,14.7047349 Z M15.2334286,14.0702317 C15.2792181,13.9023368 15.36803,13.749298 15.4910856,13.6262424 L18.142736,10.9745919 C19.5091953,9.60813265 19.5091953,7.39130374 18.142736,6.02484446 C16.7762768,4.65838518 14.5594479,4.65838518 13.1929886,6.02484446 L10.5413381,8.67649489 C10.4182825,8.79955052 10.2652437,8.88836241 10.0973488,8.93415193 L5.92617924,10.0717436 L14.0958369,18.2414013 L15.2334286,14.0702317 Z" fill="currentColor" fill-rule="nonzero"></path>
</svg>
