<svg xmlns="http://www.w3.org/2000/svg" viewBox="0 0 24 24">
  <path fill="currentColor" fill-rule="evenodd" d="M12,14.5 C10.62,14.5 9.5,13.38 9.5,12 C9.5,10.62 10.62,9.5 12,9.5 C13.38,9.5 14.5,10.62 14.5,12 C14.5,13.38 13.38,14.5 12,14.5 Z M20,14.5 C18.62,14.5 17.5,13.38 17.5,12 C17.5,10.62 18.62,9.5 20,9.5 C21.38,9.5 22.5,10.62 22.5,12 C22.5,13.38 21.38,14.5 20,14.5 Z M4,14.5 C2.62,14.5 1.5,13.38 1.5,12 C1.5,10.62 2.62,9.5 4,9.5 C5.38,9.5 6.5,10.62 6.5,12 C6.5,13.38 5.38,14.5 4,14.5 Z"/>
</svg>
