<svg xmlns="http://www.w3.org/2000/svg" width="24" height="24" viewBox="0 0 24 24">
  <path fill="currentColor" d="M19.7859714,6.18180045 L19.7859714,3 C19.7859714,2.44771525 20.2336867,2 20.7859714,2 C21.3382562,2 21.7859714,2.44771525 21.7859714,3 L21.7859714,9 C21.7859714,9.55228475 21.3382562,10 20.7859714,10 L20.1664408,10 C20.1509182,10.0003635 20.1354255,10.0003617 20.1199742,10 L14.7859714,10 C14.2336867,10 13.7859714,9.55228475 13.7859714,9 C13.7859714,8.44771525 14.2336867,8 14.7859714,8 L18.5772923,8 C17.1699602,5.55564646 14.6617045,4 11.8931143,4 C8.64581236,4 5.75665612,6.14012373 4.58200788,9.34420751 C4.39190732,9.86274413 3.81744339,10.1289942 3.29890677,9.9388936 C2.78037016,9.74879304 2.51412013,9.1743291 2.70422069,8.65579249 C4.16036145,4.68388257 7.78358937,2 11.8931143,2 C15.0761516,2 17.967445,3.61014033 19.7859714,6.18180045 Z M4.64311429,16.961547 L4.64311429,20.1428571 C4.64311429,20.6951419 4.19539904,21.1428571 3.64311429,21.1428571 C3.09082954,21.1428571 2.64311429,20.6951419 2.64311429,20.1428571 L2.64311429,14.1428571 C2.64311429,13.5905724 3.09082954,13.1428571 3.64311429,13.1428571 L4.26264522,13.1428571 C4.27816808,13.1424936 4.293661,13.1424954 4.30911248,13.1428571 L9.64311429,13.1428571 C10.195399,13.1428571 10.6431143,13.5905724 10.6431143,14.1428571 C10.6431143,14.6951419 10.195399,15.1428571 9.64311429,15.1428571 L5.85158754,15.1428571 C7.25868064,17.5876388 9.76645642,19.1428571 12.5359714,19.1428571 C15.783691,19.1428571 18.6725587,17.0031633 19.8470507,13.7987237 C20.0371104,13.2801721 20.6115533,13.0138767 21.1301049,13.2039364 C21.6486565,13.3939961 21.9149518,13.968439 21.7248922,14.4869906 C20.2689265,18.4593923 16.6458967,21.1428571 12.5359714,21.1428571 C9.35227863,21.1428571 6.46142135,19.5332464 4.64311429,16.961547 Z"/>
</svg>
