<svg viewBox="0 0 24 24" version="1.1"
    xmlns="http://www.w3.org/2000/svg"
    xmlns:xlink="http://www.w3.org/1999/xlink" aria-hidden="true">
    <title>Review</title>
    <path d="M18.5409745,5.45908592 C22.1528036,9.07175599 22.1528036,14.928544 18.5409745,18.5412141 C14.928469,22.1528786 9.07168099,22.1528786 5.45901092,18.5410495 C1.84734636,14.928544 1.84734636,9.07175599 5.45917553,5.45908592 C9.07168099,1.84742136 14.928469,1.84742136 18.5409745,5.45908592 Z M6.87338908,6.87329947 C4.04255364,9.70479401 4.04255364,14.295506 6.87322447,17.1268359 C9.70471901,19.9576714 14.295431,19.9576714 17.1267609,17.1270005 C19.9575689,14.2955334 19.9575964,9.70488299 17.1268432,6.87338179 C14.295342,4.04262864 9.70469158,4.04265607 6.87338908,6.87329947 Z M12.4474386,14.3944272 C11.9534601,14.6414164 11.3527871,14.4411921 11.1057978,13.9472136 C10.8588086,13.4532351 11.0590329,12.8525621 11.5530114,12.6055728 L13.3095114,11.7273228 C13.73268,11.5157385 14.000225,11.0827809 14.000225,10.6095 L14.000225,10.5 C14.000225,9.80953475 13.4406903,9.25 12.750225,9.25 L12.000225,9.25 C11.3097597,9.25 10.750225,9.80953475 10.750225,10.5 C10.750225,11.0522847 10.3025097,11.5 9.750225,11.5 C9.19794025,11.5 8.750225,11.0522847 8.750225,10.5 C8.750225,8.70496525 10.2051903,7.25 12.000225,7.25 L12.750225,7.25 C14.5452597,7.25 16.000225,8.70496525 16.000225,10.5 L16.000225,10.6095 C16.000225,11.8402765 15.3047187,12.9657872 14.2039386,13.5161772 L12.4474386,14.3944272 Z M13.000225,16.507725 C13.000225,17.0600097 12.5525097,17.507725 12.000225,17.507725 C11.4479403,17.507725 11.000225,17.0600097 11.000225,16.507725 L11.000225,16.500225 C11.000225,15.9479403 11.4479403,15.500225 12.000225,15.500225 C12.5525097,15.500225 13.000225,15.9479403 13.000225,16.500225 L13.000225,16.507725 Z" fill="currentColor" fill-rule="nonzero"></path>
</svg>
