<svg viewBox="0 0 24 24" version="1.1"
    xmlns="http://www.w3.org/2000/svg"
    xmlns:xlink="http://www.w3.org/1999/xlink" aria-hidden="true">
    <title>Setting</title>
    <path d="M19.874492,13.5153926 C20.6289942,14.1363943 20.8233527,15.2124988 20.3356842,16.0587913 L19.6832764,17.190931 C19.1944327,18.0366606 18.166468,18.4059251 17.2510965,18.0632241 L16.1348425,17.644248 C15.7280378,17.9426706 15.290408,18.1963527 14.8284854,18.4007985 L14.6326854,19.5786502 C14.4721808,20.5431776 13.6387101,21.25 12.66075,21.25 L11.35725,21.25 C10.3798166,21.25 9.54653259,20.5429576 9.38603709,19.5784846 L9.19032555,18.4011652 C8.72834627,18.1968688 8.29046343,17.9430005 7.88362496,17.6443539 L6.76686781,18.0635186 C5.85200018,18.4060307 4.82269179,18.0364438 4.33481582,17.1897913 L3.68305877,16.0587791 C3.19564807,15.212934 3.38948815,14.137233 4.14306822,13.5157547 L5.06005863,12.7601384 C5.03259787,12.5088218 5.01875,12.25517 5.01875,12 C5.01875,11.7445722 5.03258056,11.4910399 5.0600334,11.2398408 L4.14275422,10.4839864 C3.38948815,9.862767 3.19564807,8.78706596 3.68306582,7.94120869 L4.33480877,6.81022092 C4.82269179,5.96355623 5.85200018,5.59396935 6.7676535,5.93677589 L7.88362507,6.35564602 C8.29046351,6.05699948 8.72834631,5.80313115 9.19032555,5.59883477 L9.38606464,4.42134979 C9.54653259,3.45704241 10.3798166,2.75 11.35725,2.75 L12.66075,2.75 C13.6387101,2.75 14.4721808,3.4568224 14.6327129,4.42151545 L14.8284312,5.59887528 C15.2901358,5.80311158 15.727833,6.05695384 16.1349241,6.35572152 L17.2518822,5.93648137 C18.166468,5.59407487 19.1944327,5.96333943 19.6839342,6.81020869 L20.3356912,7.94122092 C20.8233527,8.78750118 20.6289942,9.86360567 19.8751414,10.4840725 L18.9584181,11.239887 C18.9860252,11.4917723 19,11.7452525 19,12 C19,12.2544861 18.9860075,12.5080892 18.9583927,12.7600922 L19.874492,13.5153926 Z M18.6028088,15.0602209 L17.2483586,13.9423225 C16.9645258,13.7083097 16.8320909,13.3373579 16.9035475,12.976502 C16.9674118,12.6539877 17,12.3276354 17,12 C17,11.6719087 16.9674721,11.346317 16.9035475,11.023498 C16.8320909,10.6626421 16.9645258,10.2916903 17.2483586,10.0576775 L18.603508,8.94039256 L17.9517763,7.81002253 L16.3054035,8.42797411 C15.9602667,8.55751819 15.5718482,8.48666764 15.2946769,8.2436097 C14.8009717,7.81066826 14.2313324,7.47967017 13.6128263,7.26918056 C13.2641556,7.15052119 13.008934,6.84980738 12.9485371,6.48648455 L12.6598728,4.75 L11.3588772,4.75 L11.0702129,6.48648455 C11.009816,6.84980738 10.7545944,7.15052119 10.4059237,7.26918056 C9.7868049,7.47987869 9.21671409,7.81104718 8.72455117,8.24319023 C8.44736299,8.48657497 8.058697,8.55759839 7.7133465,8.42797411 L6.06697468,7.81002253 L5.41594123,8.93977908 L6.77018178,10.0575047 C7.05468074,10.2919369 7.18712764,10.6638813 7.11483068,11.0253661 C7.05107407,11.3441491 7.01875,11.6692637 7.01875,12 C7.01875,12.3302812 7.05113311,12.6561461 7.11483068,12.9746339 C7.18712764,13.3361187 7.05468074,13.7080631 6.77018178,13.9424953 L5.41524578,15.0589864 L6.0669745,16.1899772 L7.7133465,15.5720259 C8.058697,15.4424016 8.44736299,15.513425 8.72455117,15.7568098 C9.21671409,16.1889528 9.7868049,16.5201213 10.4059237,16.7308194 C10.7545944,16.8494788 11.009816,17.1501926 11.0702129,17.5135154 L11.3588772,19.25 L12.6598728,19.25 L12.9485371,17.5135154 C13.0088814,17.150509 13.2637191,16.8499754 13.6119799,16.7311079 C14.2321507,16.5194328 14.8018618,16.1885512 15.2946769,15.7563903 C15.5718482,15.5133324 15.9602667,15.4424818 16.3054035,15.5720259 L17.9517753,16.1899775 L18.6028088,15.0602209 Z M15.259,12 C15.259,13.7950347 13.8040347,15.25 12.009,15.25 C10.2145077,15.25 8.759,13.7948273 8.759,12 C8.759,10.2051727 10.2145077,8.75 12.009,8.75 C13.8040347,8.75 15.259,10.2049653 15.259,12 Z M13.259,12 C13.259,11.3095347 12.6994653,10.75 12.009,10.75 C11.3189742,10.75 10.759,11.3098453 10.759,12 C10.759,12.6901547 11.3189742,13.25 12.009,13.25 C12.6994653,13.25 13.259,12.6904653 13.259,12 Z" fill="currentColor" fill-rule="nonzero"></path>
</svg>
