<svg viewBox="0 0 24 24" version="1.1"
    xmlns="http://www.w3.org/2000/svg"
    xmlns:xlink="http://www.w3.org/1999/xlink" aria-hidden="true">
    <title>Social</title>
    <path d="M9.18637515,12.1056982 C9.228252,12.3139503 9.250225,12.5294073 9.250225,12.75 C9.250225,12.8591205 9.24484826,12.9669842 9.23434523,13.0733408 L15.5676984,15.8445596 C16.1630701,15.1731383 17.0321974,14.75 18.000225,14.75 C19.7952597,14.75 21.250225,16.2049653 21.250225,18 C21.250225,19.7950347 19.7952597,21.25 18.000225,21.25 C16.2051903,21.25 14.750225,19.7950347 14.750225,18 C14.750225,17.8909564 14.7555942,17.7831677 14.7660826,17.6768838 L8.43260187,14.9056092 C7.83723415,15.5769326 6.96817141,16 6.000225,16 C4.20519025,16 2.750225,14.5450347 2.750225,12.75 C2.750225,10.9549653 4.20519025,9.5 6.000225,9.5 C6.85145873,9.5 7.62621744,9.82719341 8.20560652,10.3626856 L14.8141596,6.64472289 C14.7722276,6.43634016 14.750225,6.22074142 14.750225,6 C14.750225,4.20496525 16.2051903,2.75 18.000225,2.75 C19.7952597,2.75 21.250225,4.20496525 21.250225,6 C21.250225,7.79503475 19.7952597,9.25 18.000225,9.25 C17.1491457,9.25 16.3745136,8.92292528 15.7951588,8.38760575 L9.18637515,12.1056982 Z M19.250225,18 C19.250225,17.3095347 18.6906903,16.75 18.000225,16.75 C17.3097597,16.75 16.750225,17.3095347 16.750225,18 C16.750225,18.6904653 17.3097597,19.25 18.000225,19.25 C18.6906903,19.25 19.250225,18.6904653 19.250225,18 Z M19.250225,6 C19.250225,5.30953475 18.6906903,4.75 18.000225,4.75 C17.3097597,4.75 16.750225,5.30953475 16.750225,6 C16.750225,6.69046525 17.3097597,7.25 18.000225,7.25 C18.6906903,7.25 19.250225,6.69046525 19.250225,6 Z M7.250225,12.75 C7.250225,12.0595347 6.69069025,11.5 6.000225,11.5 C5.30975975,11.5 4.750225,12.0595347 4.750225,12.75 C4.750225,13.4404653 5.30975975,14 6.000225,14 C6.69069025,14 7.250225,13.4404653 7.250225,12.75 Z" fill="currentColor" fill-rule="nonzero"></path>
</svg>
