<svg viewBox="0 0 24 24" version="1.1"
    xmlns="http://www.w3.org/2000/svg"
    xmlns:xlink="http://www.w3.org/1999/xlink">
    <title>Stop</title>
    <path d="M0.0003,7.417 C0.0003,7.15178351 0.10565684,6.8974296 0.293193219,6.70989322 L6.71019322,0.292893219 C6.8977296,0.10535684 7.15208351,0 7.4173,0 L16.5833,0 C16.8485165,0 17.1028704,0.10535684 17.2904068,0.292893219 L23.7074068,6.70989322 C23.8949432,6.8974296 24.0003,7.15178351 24.0003,7.417 L24.0003,16.583 C24.0003,16.8482165 23.8949432,17.1025704 23.7074068,17.2901068 L17.2904068,23.7071068 C17.1028704,23.8946432 16.8485165,24 16.5833,24 L7.4173,24 C7.15208351,24 6.8977296,23.8946432 6.71019322,23.7071068 L0.293193219,17.2901068 C0.10565684,17.1025704 0.0003,16.8482165 0.0003,16.583 L0.0003,7.417 Z M2.0003,7.83121356 L2.0003,16.1687864 L7.83151356,22 L16.1690864,22 L22.0003,16.1687864 L22.0003,7.83121356 L16.1690864,2 L7.83151356,2 L2.0003,7.83121356 Z M11.0003,16.9902 C11.0003,16.4379153 11.4480153,15.9902 12.0003,15.9902 C12.5525847,15.9902 13.0003,16.4379153 13.0003,16.9902 L13.0003,17.0002 C13.0003,17.5524847 12.5525847,18.0002 12.0003,18.0002 C11.4480153,18.0002 11.0003,17.5524847 11.0003,17.0002 L11.0003,16.9902 Z M13.0003,13 C13.0003,13.5522847 12.5525847,14 12.0003,14 C11.4480153,14 11.0003,13.5522847 11.0003,13 L11.0003,7 C11.0003,6.44771525 11.4480153,6 12.0003,6 C12.5525847,6 13.0003,6.44771525 13.0003,7 L13.0003,13 Z" fill="currentColor" fill-rule="nonzero"></path>
</svg>
