<svg viewBox="0 0 24 24" version="1.1"
    xmlns="http://www.w3.org/2000/svg"
    xmlns:xlink="http://www.w3.org/1999/xlink" aria-hidden="true">
    <title>Support</title>
    <path d="M18.5409745,5.45908592 C22.1528036,9.07175599 22.1528036,14.928544 18.5409745,18.5412141 C14.928469,22.1528786 9.07168099,22.1528786 5.45901092,18.5410495 C1.84734636,14.928544 1.84734636,9.07175599 5.45917553,5.45908592 C9.07168099,1.84742136 14.928469,1.84742136 18.5409745,5.45908592 Z M6.87338908,6.87329947 C4.04255364,9.70479401 4.04255364,14.295506 6.87322447,17.1268359 C9.70471901,19.9576714 14.295431,19.9576714 17.1267609,17.1270005 C19.9575689,14.2955334 19.9575964,9.70488299 17.1268432,6.87338179 C14.295342,4.04262864 9.70469158,4.04265607 6.87338908,6.87329947 Z M13,14.9964 C13,15.5486847 12.5522847,15.9964 12,15.9964 C11.4477153,15.9964 11,15.5486847 11,14.9964 L11,11.9964 C11,11.4441153 11.4477153,10.9964 12,10.9964 C12.5522847,10.9964 13,11.4441153 13,11.9964 L13,14.9964 Z M13,9.0114 C13,9.56368475 12.5522847,10.0114 12,10.0114 C11.4477153,10.0114 11,9.56368475 11,9.0114 L11,9.0039 C11,8.45161525 11.4477153,8.0039 12,8.0039 C12.5522847,8.0039 13,8.45161525 13,9.0039 L13,9.0114 Z" fill="currentColor" fill-rule="nonzero"></path>
</svg>
