<svg viewBox="0 0 24 24" version="1.1"
    xmlns="http://www.w3.org/2000/svg"
    xmlns:xlink="http://www.w3.org/1999/xlink">
    <title>Table</title>
    <path d="M7.01652685,9 C6.45511457,9 6,8.55228475 6,8 C6,7.44771525 6.45511457,7 7.01652685,7 L16.9834731,7 C17.5448854,7 18,7.44771525 18,8 C18,8.55228475 17.5448854,9 16.9834731,9 L7.01652685,9 Z M7.01652685,13 C6.45511457,13 6,12.5522847 6,12 C6,11.4477153 6.45511457,11 7.01652685,11 L16.9834731,11 C17.5448854,11 18,11.4477153 18,12 C18,12.5522847 17.5448854,13 16.9834731,13 L7.01652685,13 Z M7.01652685,17 C6.45511457,17 6,16.5522847 6,16 C6,15.4477153 6.45511457,15 7.01652685,15 L16.9834731,15 C17.5448854,15 18,15.4477153 18,16 C18,16.5522847 17.5448854,17 16.9834731,17 L7.01652685,17 Z M18.5234899,18.9490946 C18.756241,18.9490946 18.9463087,18.7589937 18.9463087,18.5246296 L18.9463087,5.47537041 C18.9463087,5.24100635 18.756241,5.05090545 18.5234899,5.05090545 L5.47651007,5.05090545 C5.24375897,5.05090545 5.05369128,5.24100635 5.05369128,5.47537041 L5.05369128,18.5246296 C5.05369128,18.7589937 5.24375897,18.9490946 5.47651007,18.9490946 L18.5234899,18.9490946 Z M18.5234899,21 L5.47651007,21 C4.10883164,21 3,19.8909746 3,18.5246296 L3,5.47537041 C3,4.10902535 4.10883164,3 5.47651007,3 L18.5234899,3 C19.8911684,3 21,4.10902535 21,5.47537041 L21,18.5246296 C21,19.8909746 19.8911684,21 18.5234899,21 Z" fill="currentColor" fill-rule="nonzero"></path>
</svg>
