<svg viewBox="0 0 24 24" version="1.1"
    xmlns="http://www.w3.org/2000/svg"
    xmlns:xlink="http://www.w3.org/1999/xlink" aria-hidden="true">
    <title>Template</title>
    <path d="M9.000225,11.5 L6.000225,11.5 C4.61994025,11.5 3.500225,10.3802847 3.500225,9 L3.500225,6 C3.500225,4.61971525 4.61994025,3.5 6.000225,3.5 L9.000225,3.5 C10.3805097,3.5 11.500225,4.61971525 11.500225,6 L11.500225,9 C11.500225,10.3802847 10.3805097,11.5 9.000225,11.5 Z M9.000225,9.5 C9.27594025,9.5 9.500225,9.27571525 9.500225,9 L9.500225,6 C9.500225,5.72428475 9.27594025,5.5 9.000225,5.5 L6.000225,5.5 C5.72450975,5.5 5.500225,5.72428475 5.500225,6 L5.500225,9 C5.500225,9.27571525 5.72450975,9.5 6.000225,9.5 L9.000225,9.5 Z M18.000225,11.5 L15.000225,11.5 C13.6199403,11.5 12.500225,10.3802847 12.500225,9 L12.500225,6 C12.500225,4.61971525 13.6199403,3.5 15.000225,3.5 L18.000225,3.5 C19.3805097,3.5 20.500225,4.61971525 20.500225,6 L20.500225,9 C20.500225,10.3802847 19.3805097,11.5 18.000225,11.5 Z M18.000225,9.5 C18.2759403,9.5 18.500225,9.27571525 18.500225,9 L18.500225,6 C18.500225,5.72428475 18.2759403,5.5 18.000225,5.5 L15.000225,5.5 C14.7245097,5.5 14.500225,5.72428475 14.500225,6 L14.500225,9 C14.500225,9.27571525 14.7245097,9.5 15.000225,9.5 L18.000225,9.5 Z M9.000225,20.5 L6.000225,20.5 C4.61994025,20.5 3.500225,19.3802847 3.500225,18 L3.500225,15 C3.500225,13.6197153 4.61994025,12.5 6.000225,12.5 L9.000225,12.5 C10.3805097,12.5 11.500225,13.6197153 11.500225,15 L11.500225,18 C11.500225,19.3802847 10.3805097,20.5 9.000225,20.5 Z M9.000225,18.5 C9.27594025,18.5 9.500225,18.2757153 9.500225,18 L9.500225,15 C9.500225,14.7242847 9.27594025,14.5 9.000225,14.5 L6.000225,14.5 C5.72450975,14.5 5.500225,14.7242847 5.500225,15 L5.500225,18 C5.500225,18.2757153 5.72450975,18.5 6.000225,18.5 L9.000225,18.5 Z M18.000225,20.5 L15.000225,20.5 C13.6199403,20.5 12.500225,19.3802847 12.500225,18 L12.500225,15 C12.500225,13.6197153 13.6199403,12.5 15.000225,12.5 L18.000225,12.5 C19.3805097,12.5 20.500225,13.6197153 20.500225,15 L20.500225,18 C20.500225,19.3802847 19.3805097,20.5 18.000225,20.5 Z M18.000225,18.5 C18.2759403,18.5 18.500225,18.2757153 18.500225,18 L18.500225,15 C18.500225,14.7242847 18.2759403,14.5 18.000225,14.5 L15.000225,14.5 C14.7245097,14.5 14.500225,14.7242847 14.500225,15 L14.500225,18 C14.500225,18.2757153 14.7245097,18.5 15.000225,18.5 L18.000225,18.5 Z" fill="currentColor" fill-rule="nonzero"></path>
</svg>
