<svg viewBox="0 0 24 24" version="1.1"
    xmlns="http://www.w3.org/2000/svg"
    xmlns:xlink="http://www.w3.org/1999/xlink" aria-hidden="true">
    <title>Time</title>
    <path d="M19.250225,12 C19.250225,7.99603475 16.0041903,4.75 12.000225,4.75 C7.99625975,4.75 4.750225,7.99603475 4.750225,12 C4.750225,16.0039653 7.99625975,19.25 12.000225,19.25 C16.0041903,19.25 19.250225,16.0039653 19.250225,12 Z M21.250225,12 C21.250225,17.1085347 17.1087597,21.25 12.000225,21.25 C6.89169025,21.25 2.750225,17.1085347 2.750225,12 C2.750225,6.89146525 6.89169025,2.75 12.000225,2.75 C17.1087597,2.75 21.250225,6.89146525 21.250225,12 Z M11.000225,11.75 L11.000225,8.25 C11.000225,7.69771525 11.4479403,7.25 12.000225,7.25 C12.5525097,7.25 13.000225,7.69771525 13.000225,8.25 L13.000225,12.75 C13.000225,13.3022847 12.5525097,13.75 12.000225,13.75 L9.000225,13.75 C8.44794025,13.75 8.000225,13.3022847 8.000225,12.75 C8.000225,12.1977153 8.44794025,11.75 9.000225,11.75 L11.000225,11.75 Z" fill="currentColor" fill-rule="nonzero"></path>
</svg>
