<svg viewBox="0 0 72 72" version="1.1"
    xmlns="http://www.w3.org/2000/svg"
    xmlns:xlink="http://www.w3.org/1999/xlink">
    <title>Train</title>
    <path d="M56.861275,52.6923077 C55.1863298,52.0370969 54,50.4070895 54,48.5 C54,47.607863 54.259613,46.7763619 54.7074124,46.0769231 L52.2925876,46.0769231 C52.740387,46.7763619 53,47.607863 53,48.5 C53,50.4070895 51.8136702,52.0370969 50.138725,52.6923077 L56.861275,52.6923077 Z M60.138725,52.6923077 L61.0046335,52.6923077 L67.997418,52.6923077 L67.997418,55 L4,55 L4,52.6923077 L6.72629001,52.6923077 L9.86127499,52.6923077 C8.1863298,52.0370969 7,50.4070895 7,48.5 C7,47.607863 7.25961295,46.7763619 7.7074124,46.0769231 L6.72629001,46.0769231 L5.06662363,46.0769231 C4.47754367,46.0769231 4,45.5603286 4,44.9230769 L4,20.1538462 C4,19.5165945 4.47754367,19 5.06662363,19 L60.5310526,19 C64.652663,19.0050869 67.9927156,22.6182704 67.997418,27.0769231 L67.997418,44.9230769 C67.997418,45.5603286 67.5198743,46.0769231 66.9307944,46.0769231 L62.2925876,46.0769231 C62.740387,46.7763619 63,47.607863 63,48.5 C63,50.4070895 61.8136702,52.0370969 60.138725,52.6923077 Z M59.117815,46.0769231 L57.882185,46.0769231 C56.8002742,46.3519429 56,47.3325144 56,48.5 C56,49.8807119 57.1192881,51 58.5,51 C59.8807119,51 61,49.8807119 61,48.5 C61,47.3325144 60.1997258,46.3519429 59.117815,46.0769231 Z M46.861275,52.6923077 C45.1863298,52.0370969 44,50.4070895 44,48.5 C44,47.607863 44.259613,46.7763619 44.7074124,46.0769231 L25.2925876,46.0769231 C25.740387,46.7763619 26,47.607863 26,48.5 C26,50.4070895 24.8136702,52.0370969 23.138725,52.6923077 L46.861275,52.6923077 Z M49.117815,46.0769231 L47.882185,46.0769231 C46.8002742,46.3519429 46,47.3325144 46,48.5 C46,49.8807119 47.1192881,51 48.5,51 C49.8807119,51 51,49.8807119 51,48.5 C51,47.3325144 50.1997258,46.3519429 49.117815,46.0769231 Z M19.861275,52.6923077 C18.1863298,52.0370969 17,50.4070895 17,48.5 C17,47.607863 17.259613,46.7763619 17.7074124,46.0769231 L15.2925876,46.0769231 C15.740387,46.7763619 16,47.607863 16,48.5 C16,50.4070895 14.8136702,52.0370969 13.138725,52.6923077 L19.861275,52.6923077 Z M20.882185,46.0769231 C19.8002742,46.3519429 19,47.3325144 19,48.5 C19,49.8807119 20.1192881,51 21.5,51 C22.8807119,51 24,49.8807119 24,48.5 C24,47.3325144 23.1997258,46.3519429 22.117815,46.0769231 L20.882185,46.0769231 Z M12.117815,46.0769231 L10.882185,46.0769231 C9.80027421,46.3519429 9,47.3325144 9,48.5 C9,49.8807119 10.1192881,51 11.5,51 C12.8807119,51 14,49.8807119 14,48.5 C14,47.3325144 13.1997258,46.3519429 12.117815,46.0769231 Z M44.5316981,25.6153846 C45.120778,25.6153846 45.5983217,26.1319791 45.5983217,26.7692308 L45.5983217,35.6923077 C45.5983217,36.3295593 45.120778,36.8461538 44.5316981,36.8461538 L31.7322145,36.8461538 C31.1431345,36.8461538 30.6655908,36.3295593 30.6655908,35.6923077 L30.6655908,26.7692308 C30.6655908,26.1319791 31.1431345,25.6153846 31.7322145,25.6153846 L44.5316981,25.6153846 Z M43.4650744,34.5384615 L43.4650744,27.9230769 L32.7988381,27.9230769 L32.7988381,34.5384615 L43.4650744,34.5384615 Z M27.4657199,25.6153846 C28.0547999,25.6153846 28.5323436,26.1319791 28.5323436,26.7692308 L28.5323436,35.6923077 C28.5323436,36.3295593 28.0547999,36.8461538 27.4657199,36.8461538 L14.6662363,36.8461538 C14.0771564,36.8461538 13.5996127,36.3295593 13.5996127,35.6923077 L13.5996127,26.7692308 C13.5996127,26.1319791 14.0771564,25.6153846 14.6662363,25.6153846 L27.4657199,25.6153846 Z M26.3990963,34.5384615 L26.3990963,27.9230769 L15.73286,27.9230769 L15.73286,34.5384615 L26.3990963,34.5384615 Z M65.8641707,34.5384615 L65.8641707,27.0769231 C65.8606444,23.8922464 63.4749905,21.3115071 60.5310526,21.3076923 L60.5310526,34.5384615 L65.8641707,34.5384615 Z M6.13324727,27.9230769 L6.13324727,34.5384615 L9.33311817,34.5384615 L9.33311817,27.9230769 L6.13324727,27.9230769 Z M54.1313108,43.7692308 L54.1313108,27.9230769 L49.8648162,27.9230769 L49.8648162,43.7692308 L54.1313108,43.7692308 Z M56.264558,43.7692308 L65.8641707,43.7692308 L65.8641707,36.8461538 L59.4644289,36.8461538 C58.875349,36.8461538 58.3978053,36.3295593 58.3978053,35.6923077 L58.3978053,21.3076923 L6.13324727,21.3076923 L6.13324727,25.6153846 L10.3997418,25.6153846 C10.9888218,25.6153846 11.4663654,26.1319791 11.4663654,26.7692308 L11.4663654,35.6923077 C11.4663654,36.3295593 10.9888218,36.8461538 10.3997418,36.8461538 L6.13324727,36.8461538 L6.13324727,43.7692308 L47.731569,43.7692308 L47.731569,26.7692308 C47.731569,26.1319791 48.2091126,25.6153846 48.7981926,25.6153846 L55.1979344,25.6153846 C55.7870144,25.6153846 56.264558,26.1319791 56.264558,26.7692308 L56.264558,43.7692308 Z" fill="currentColor" fill-rule="nonzero"></path>
</svg>
