<svg viewBox="0 0 72 72" version="1.1"
    xmlns="http://www.w3.org/2000/svg"
    xmlns:xlink="http://www.w3.org/1999/xlink">
    <title>Tram</title>
    <path d="M62.6666667,55.826087 L66.9333333,55.826087 C67.5224371,55.826087 68,55.3589058 68,54.7826087 L68,42.2608696 C68,42.1753846 67.9892436,42.0902247 67.968,42.0073043 L64.768,29.4855652 C64.6491103,29.0212893 64.2225913,28.6956648 63.7333333,28.6956522 L46.2592,28.6956522 L44.4266667,25.0987826 C44.2450924,24.7433015 43.8728807,24.5195699 43.4666667,24.5217391 L38.5749333,24.5217391 L43.1541333,20.042087 C43.5705407,19.6346089 43.5705407,18.9740868 43.1541333,18.5666087 L38.5749333,14.0869565 L58.4,14.0869565 C58.9891037,14.0869565 59.4666667,13.6197754 59.4666667,13.0434783 C59.4666667,12.4671811 58.9891037,12 58.4,12 L13.6,12 C13.0108963,12 12.5333333,12.4671811 12.5333333,13.0434783 C12.5333333,13.6197754 13.0108963,14.0869565 13.6,14.0869565 L33.4250667,14.0869565 L28.8458667,18.5666087 C28.4294593,18.9740868 28.4294593,19.6346089 28.8458667,20.042087 L33.4250667,24.5217391 L28.5333333,24.5217391 C28.129039,24.5215548 27.7593862,24.7449896 27.5786667,25.0987826 L25.7408,28.6956522 L8.26666667,28.6956522 C7.77740866,28.6956648 7.3508897,29.0212893 7.232,29.4855652 L4.032,42.0073043 C4.01075637,42.0902247 4,42.1753846 4,42.2608696 L4,54.7826087 C4,55.3589058 4.47756293,55.826087 5.06666667,55.826087 L9.33333333,55.826087 C9.33333333,58.1312755 11.2435851,60 13.6,60 C15.9564149,60 17.8666667,58.1312755 17.8666667,55.826087 L20,55.826087 C20,58.1312755 21.9102517,60 24.2666667,60 C26.6230816,60 28.5333333,58.1312755 28.5333333,55.826087 L43.4666667,55.826087 C43.4666667,58.1312755 45.3769184,60 47.7333333,60 C50.0897483,60 52,58.1312755 52,55.826087 L54.1333333,55.826087 C54.1333333,58.1312755 56.0435851,60 58.4,60 C60.7564149,60 62.6666667,58.1312755 62.6666667,55.826087 Z M36,14.5189565 L40.8917333,19.3043478 L36,24.0897391 L31.1082667,19.3043478 L36,14.5189565 Z M29.1925333,26.6086957 L42.8074667,26.6086957 L43.8741333,28.6956522 L28.1258667,28.6956522 L29.1925333,26.6086957 Z M13.6,57.9130435 C12.4217925,57.9130435 11.4666667,56.9786812 11.4666667,55.826087 L15.7333333,55.826087 C15.7333333,56.9786812 14.7782075,57.9130435 13.6,57.9130435 Z M18.9333333,41.2173913 L10.6997333,41.2173913 L12.2997333,34.9565217 L18.9333333,34.9565217 L18.9333333,41.2173913 Z M24.2666667,57.9130435 C23.0884592,57.9130435 22.1333333,56.9786812 22.1333333,55.826087 L26.4,55.826087 C26.4,56.9786812 25.4448741,57.9130435 24.2666667,57.9130435 Z M21.0666667,53.7391304 L21.0666667,34.9565217 L29.6,34.9565217 L29.6,53.7391304 L21.0666667,53.7391304 Z M40.2666667,34.9565217 L40.2666667,41.2173913 L31.7333333,41.2173913 L31.7333333,34.9565217 L40.2666667,34.9565217 Z M31.7333333,43.3043478 L40.2666667,43.3043478 L40.2666667,53.7391304 L31.7333333,53.7391304 L31.7333333,43.3043478 Z M42.4,53.7391304 L42.4,34.9565217 L50.9333333,34.9565217 L50.9333333,53.7391304 L42.4,53.7391304 Z M59.7002667,34.9565217 L61.3002667,41.2173913 L53.0666667,41.2173913 L53.0666667,34.9565217 L59.7002667,34.9565217 Z M47.7333333,57.9130435 C46.5551259,57.9130435 45.6,56.9786812 45.6,55.826087 L49.8666667,55.826087 C49.8666667,56.9786812 48.9115408,57.9130435 47.7333333,57.9130435 Z M53.0666667,53.7391304 L53.0666667,43.3043478 L62.6666667,43.3043478 C62.9952157,43.3043394 63.3054291,43.1562156 63.5075568,42.9028311 C63.7096845,42.6494467 63.7811708,42.3190773 63.7013333,42.0073043 L61.568,33.6594783 C61.4491103,33.1952024 61.0225913,32.8695778 60.5333333,32.8695652 L11.4666667,32.8695652 C10.9774087,32.8695778 10.5508897,33.1952024 10.432,33.6594783 L8.29866667,42.0073043 C8.21882925,42.3190773 8.29031549,42.6494467 8.49244319,42.9028311 C8.69457089,43.1562156 9.00478429,43.3043394 9.33333333,43.3043478 L18.9333333,43.3043478 L18.9333333,53.7391304 L6.13333333,53.7391304 L6.13333333,42.3892174 L9.09973333,30.7826087 L62.9002667,30.7826087 L65.8666667,42.3892174 L65.8666667,53.7391304 L53.0666667,53.7391304 Z M58.4,57.9130435 C57.2217925,57.9130435 56.2666667,56.9786812 56.2666667,55.826087 L60.5333333,55.826087 C60.5333333,56.9786812 59.5782075,57.9130435 58.4,57.9130435 Z" fill="currentColor" fill-rule="nonzero"></path>
</svg>
