<svg viewBox="0 0 24 24" version="1.1"
    xmlns="http://www.w3.org/2000/svg"
    xmlns:xlink="http://www.w3.org/1999/xlink" aria-hidden="true">
    <title>User</title>
    <path d="M12.000225,15.417025 C9.79194025,15.417025 8.000225,13.6253097 8.000225,11.417025 C8.000225,9.20874025 9.79194025,7.417025 12.000225,7.417025 C14.2085097,7.417025 16.000225,9.20874025 16.000225,11.417025 C16.000225,13.6253097 14.2085097,15.417025 12.000225,15.417025 Z M12.000225,13.417025 C13.1039403,13.417025 14.000225,12.5207403 14.000225,11.417025 C14.000225,10.3133097 13.1039403,9.417025 12.000225,9.417025 C10.8965097,9.417025 10.000225,10.3133097 10.000225,11.417025 C10.000225,12.5207403 10.8965097,13.417025 12.000225,13.417025 Z M17.8372178,18.9961957 C18.1154613,19.4732691 17.9542777,20.0855744 17.4772043,20.3638178 C17.0001309,20.6420613 16.3878256,20.4808777 16.1095822,20.0038043 C15.5971556,19.1252028 13.9358718,18.41725 12.00015,18.41725 C10.0644282,18.41725 8.40314441,19.1252028 7.89071782,20.0038043 C7.61247438,20.4808777 7.0001691,20.6420613 6.5230957,20.3638178 C6.04602229,20.0855744 5.88483875,19.4732691 6.16308218,18.9961957 C7.08755476,17.4111043 9.41973561,16.41725 12.00015,16.41725 C14.5805644,16.41725 16.9127452,17.4111043 17.8372178,18.9961957 Z M19.9849992,17.9409214 C19.6957834,18.411424 19.07991,18.5583861 18.6094074,18.2691703 C18.1389048,17.9799546 17.9919428,17.3640812 18.2811585,16.8935786 C18.9933902,15.7349043 19.3757331,14.4162919 19.3757331,13.0428331 C19.3757331,8.96915182 16.0738886,5.6671 12,5.6671 C7.92659581,5.6671 4.62426695,8.96942887 4.62426695,13.0428331 C4.62426695,14.4156012 5.00695665,15.7342298 5.7196029,16.8935786 C6.00881865,17.3640812 5.86185663,17.9799546 5.39135403,18.2691703 C4.92085144,18.5583861 4.30497803,18.411424 4.01576228,17.9409214 C3.11190532,16.4705069 2.62426695,14.7902581 2.62426695,13.0428331 C2.62426695,7.86485937 6.82202631,3.6671 12,3.6671 C17.1784862,3.6671 21.3757331,7.86461043 21.3757331,13.0428331 C21.3757331,14.7907754 20.888524,16.4710472 19.9849992,17.9409214 Z" fill="currentColor" fill-rule="nonzero"></path>
</svg>
